{"glyphs":{"0":{"ha":343,"x_min":0,"x_max":0,"o":"m 111 154 b 171 25 111 64 129 25 b 232 154 214 25 232 64 l 232 818 b 171 947 232 908 214 947 b 111 818 129 947 111 908 l 111 154 m 19 694 b 171 982 19 889 68 982 b 324 694 275 982 324 889 l 324 278 b 171 -10 324 83 275 -10 b 19 278 68 -10 19 83 "},"1":{"ha":261,"x_min":0,"x_max":0,"o":"m 22 40 b 81 194 64 40 81 85 l 81 689 b 22 843 81 799 64 843 l 14 843 l 25 883 l 32 883 b 156 972 93 883 128 921 l 181 972 l 181 194 b 239 40 181 85 197 40 l 247 40 l 236 0 l 25 0 l 14 40 l 22 40 "},"2":{"ha":350,"x_min":0,"x_max":0,"o":"m 21 -10 b 217 781 -21 293 217 468 b 146 944 217 904 179 944 b 93 878 110 944 93 908 b 147 738 93 821 147 818 b 14 764 147 611 14 589 b 163 982 14 885 65 982 b 321 738 246 982 321 903 b 71 163 321 476 135 374 b 117 186 81 178 94 186 b 249 126 174 186 200 126 b 297 183 286 126 297 163 b 269 268 297 224 286 244 l 293 289 b 336 151 301 276 336 231 b 221 -10 336 64 293 -10 b 85 101 136 -10 138 101 b 54 10 58 101 50 74 l 56 -10 l 21 -10 "},"3":{"ha":331,"x_min":0,"x_max":0,"o":"m 79 553 b 217 750 192 553 217 608 b 147 944 217 888 193 944 b 93 879 108 944 93 911 b 147 736 93 824 147 815 b 14 763 147 608 14 588 b 163 982 14 892 72 982 b 317 744 257 982 317 882 b 196 529 317 606 257 550 b 317 263 257 503 317 433 b 161 -10 317 89 254 -10 b 14 211 65 -10 14 85 b 146 239 14 396 146 364 b 92 96 146 160 92 154 b 150 28 92 56 115 28 b 217 247 197 28 217 85 b 79 511 217 456 188 511 l 79 553 "},"4":{"ha":394,"x_min":0,"x_max":0,"o":"m 131 40 l 139 40 b 197 194 181 40 197 85 l 197 240 l 14 240 l 14 276 l 257 972 l 297 972 l 297 276 l 381 276 l 381 240 l 297 240 l 297 194 b 356 40 297 85 314 40 l 364 40 l 353 0 l 142 0 m 197 276 l 197 694 l 51 276 "},"5":{"ha":331,"x_min":0,"x_max":0,"o":"m 97 982 b 190 892 108 926 150 892 b 283 982 229 892 263 924 l 301 982 b 182 786 297 861 251 786 b 97 825 151 786 121 800 l 81 582 b 147 625 100 611 122 625 b 317 286 207 625 317 546 b 161 -10 317 89 254 -10 b 14 211 65 -10 14 85 b 146 238 14 392 146 365 b 92 94 146 158 92 150 b 151 28 92 56 117 28 b 217 278 199 28 217 90 b 143 578 217 486 194 578 b 68 438 110 578 88 539 l 33 438 l 76 982 "},"6":{"ha":346,"x_min":0,"x_max":0,"o":"m 111 419 b 181 576 111 519 136 576 b 236 447 218 576 236 535 l 236 154 b 174 25 236 63 218 25 b 111 154 131 25 111 64 l 111 419 m 14 281 b 174 -10 14 85 67 -10 b 332 281 282 -10 332 85 l 332 326 b 188 617 332 506 276 617 b 111 572 157 617 135 604 l 111 781 b 174 944 111 889 139 944 b 225 878 203 944 225 915 b 171 740 225 822 171 815 b 304 767 171 622 304 600 b 163 982 304 890 243 982 b 14 738 78 982 14 882 l 14 281 "},"7":{"ha":326,"x_min":0,"x_max":0,"o":"m 310 972 b 188 343 338 688 188 599 b 199 119 188 274 199 197 b 144 -10 199 28 183 -10 b 79 151 100 -10 79 42 b 268 800 79 436 225 603 b 219 776 256 785 240 776 b 108 867 149 776 146 867 b 40 656 81 867 76 844 l 14 656 l 25 982 l 60 982 b 69 921 58 947 57 921 b 136 982 86 921 89 982 b 251 858 199 982 207 858 b 275 972 276 858 282 886 l 310 972 "},"8":{"ha":367,"x_min":0,"x_max":0,"o":"m 118 154 b 183 25 118 64 138 25 b 249 154 229 25 249 64 l 249 410 b 183 539 249 500 229 539 b 118 410 138 539 118 500 l 118 154 m 18 282 b 115 558 18 435 50 525 b 32 761 61 592 32 667 b 183 982 32 889 85 982 b 335 761 282 982 335 889 b 251 558 335 667 306 592 b 349 282 317 525 349 435 b 183 -10 349 83 296 -10 b 18 282 71 -10 18 83 m 132 704 b 183 575 132 614 151 575 b 235 704 215 575 235 614 l 235 818 b 183 947 235 908 215 947 b 132 818 151 947 132 908 l 132 704 "},"9":{"ha":346,"x_min":0,"x_max":0,"o":"m 235 553 b 165 396 235 453 210 396 b 110 525 128 396 110 438 l 110 818 b 172 947 110 910 128 947 b 235 818 215 947 235 908 l 235 553 m 14 646 b 158 356 14 467 69 356 b 235 400 189 356 211 368 l 235 192 b 172 28 235 83 207 28 b 121 94 143 28 121 57 b 175 232 121 150 175 157 b 42 206 175 350 42 372 b 183 -10 42 82 103 -10 b 332 235 268 -10 332 90 l 332 692 b 172 982 332 888 279 982 b 14 692 64 982 14 888 l 14 646 "}," ":{"ha":181,"x_min":0,"x_max":0,"o":""}," ":{"ha":181,"x_min":0,"x_max":0,"o":""},"A":{"ha":424,"x_min":0,"x_max":0,"o":"m 172 972 l 246 972 l 333 218 b 422 40 347 103 378 40 l 431 40 l 419 0 l 200 0 l 189 40 l 197 40 b 231 174 242 40 239 92 l 226 210 l 114 210 l 110 174 b 143 40 100 92 113 40 l 151 40 l 140 0 l 4 0 l -7 40 l 1 40 b 75 218 46 40 60 103 m 222 251 l 176 713 l 119 251 "},"Á":{"ha":424,"x_min":0,"x_max":0,"o":"m 172 972 l 246 972 l 333 218 b 422 40 347 103 378 40 l 431 40 l 419 0 l 200 0 l 189 40 l 197 40 b 231 174 242 40 239 92 l 226 210 l 114 210 l 110 174 b 143 40 100 92 113 40 l 151 40 l 140 0 l 4 0 l -7 40 l 1 40 b 75 218 46 40 60 103 m 222 251 l 176 713 l 119 251 m 246 1146 l 388 1146 l 388 1142 l 203 1021 l 167 1021 "},"Â":{"ha":424,"x_min":0,"x_max":0,"o":"m 172 972 l 246 972 l 333 218 b 422 40 347 103 378 40 l 431 40 l 419 0 l 200 0 l 189 40 l 197 40 b 231 174 242 40 239 92 l 226 210 l 114 210 l 110 174 b 143 40 100 92 113 40 l 151 40 l 140 0 l 4 0 l -7 40 l 1 40 b 75 218 46 40 60 103 m 204 1154 l 211 1154 l 368 1021 l 340 1021 l 207 1069 l 75 1021 l 47 1021 m 222 251 l 176 713 l 119 251 "},"Ä":{"ha":424,"x_min":0,"x_max":0,"o":"m 172 972 l 246 972 l 333 218 b 422 40 347 103 378 40 l 431 40 l 419 0 l 200 0 l 189 40 l 197 40 b 231 174 242 40 239 92 l 226 210 l 114 210 l 110 174 b 143 40 100 92 113 40 l 151 40 l 140 0 l 4 0 l -7 40 l 1 40 b 75 218 46 40 60 103 m 86 1083 b 135 1142 86 1118 106 1142 b 183 1083 165 1142 183 1118 b 135 1028 183 1050 165 1028 b 86 1083 106 1028 86 1050 m 222 251 l 176 713 l 119 251 m 233 1083 b 282 1142 233 1118 253 1142 b 331 1083 313 1142 331 1118 b 282 1028 331 1050 313 1028 b 233 1083 253 1028 233 1050 "},"À":{"ha":424,"x_min":0,"x_max":0,"o":"m 172 972 l 246 972 l 333 218 b 422 40 347 103 378 40 l 431 40 l 419 0 l 200 0 l 189 40 l 197 40 b 231 174 242 40 239 92 l 226 210 l 114 210 l 110 174 b 143 40 100 92 113 40 l 151 40 l 140 0 l 4 0 l -7 40 l 1 40 b 75 218 46 40 60 103 m 29 1146 l 171 1146 l 250 1021 l 214 1021 l 29 1142 m 222 251 l 176 713 l 119 251 "},"Æ":{"ha":556,"x_min":0,"x_max":0,"o":"m 347 211 b 367 42 347 153 351 96 l 439 42 l 500 346 l 542 329 l 542 0 l 199 0 l 188 40 l 196 40 b 247 194 233 40 247 94 l 247 210 l 138 210 l 131 174 b 157 40 114 93 119 40 l 165 40 l 154 0 l 11 0 l 0 40 l 8 40 b 97 218 53 40 74 104 l 210 778 b 181 932 229 876 221 932 l 172 932 l 183 972 l 542 972 l 542 643 l 503 626 l 439 931 l 360 931 b 347 800 350 892 347 854 l 347 507 l 353 507 b 406 638 381 507 406 538 l 406 725 l 447 714 l 447 258 l 406 247 l 406 335 b 353 465 406 435 381 465 l 347 465 l 347 211 m 247 251 l 247 750 l 146 251 "},"B":{"ha":399,"x_min":0,"x_max":0,"o":"m 22 40 b 81 194 64 40 81 85 l 81 778 b 22 932 81 888 64 932 l 14 932 l 25 972 l 233 972 b 372 749 329 972 372 903 l 372 697 b 314 499 372 596 354 532 b 385 292 363 469 385 403 l 385 224 b 246 0 385 69 342 0 l 25 0 l 14 40 l 22 40 m 181 156 b 192 42 181 107 183 74 l 229 42 b 285 140 272 42 285 64 l 285 375 b 229 474 285 451 272 474 l 181 474 l 181 156 m 217 515 b 272 614 260 515 272 538 l 272 832 b 217 931 272 908 260 931 l 192 931 b 181 817 183 899 181 865 l 181 515 "},"C":{"ha":306,"x_min":0,"x_max":0,"o":"m 163 982 b 242 958 210 982 225 958 b 256 982 251 958 256 967 l 294 982 l 296 643 l 247 626 l 247 690 b 171 943 247 842 247 943 b 114 804 126 943 114 896 l 114 161 b 172 32 114 71 132 32 b 247 250 225 32 247 97 l 247 336 l 296 319 l 296 243 b 164 -10 296 68 256 -10 b 14 278 64 -10 14 86 l 14 694 b 163 982 14 881 67 982 "},"D":{"ha":397,"x_min":0,"x_max":0,"o":"m 22 40 b 81 194 64 40 81 85 l 81 778 b 22 932 81 888 64 932 l 14 932 l 25 972 l 222 972 b 383 685 329 972 383 865 l 383 288 b 222 0 383 107 329 0 l 25 0 l 14 40 l 22 40 m 181 156 b 190 42 181 106 183 72 l 214 42 b 283 140 263 42 283 71 l 283 832 b 214 931 283 901 263 931 l 190 931 b 181 817 183 900 181 867 l 181 156 "},"E":{"ha":390,"x_min":0,"x_max":0,"o":"m 22 40 b 81 194 64 40 81 85 l 81 778 b 22 932 81 888 64 932 l 14 932 l 25 972 l 375 972 l 376 643 l 338 626 l 272 931 l 192 931 b 181 817 183 899 181 865 l 181 507 l 186 507 b 239 638 221 507 239 550 l 239 725 l 281 714 l 281 258 l 239 247 l 239 335 b 186 465 239 422 221 465 l 181 465 l 181 156 b 192 42 181 107 183 74 l 272 42 l 338 346 l 376 329 l 375 0 l 25 0 l 14 40 l 22 40 "},"É":{"ha":390,"x_min":0,"x_max":0,"o":"m 22 40 b 81 194 64 40 81 85 l 81 778 b 22 932 81 888 64 932 l 14 932 l 25 972 l 375 972 l 376 643 l 338 626 l 272 931 l 192 931 b 181 817 183 899 181 865 l 181 507 l 186 507 b 239 638 221 507 239 550 l 239 725 l 281 714 l 281 258 l 239 247 l 239 335 b 186 465 239 422 221 465 l 181 465 l 181 156 b 192 42 181 107 183 74 l 272 42 l 338 346 l 376 329 l 375 0 l 25 0 l 14 40 l 22 40 m 233 1146 l 375 1146 l 375 1142 l 190 1021 l 154 1021 "},"Ê":{"ha":390,"x_min":0,"x_max":0,"o":"m 22 40 b 81 194 64 40 81 85 l 81 778 b 22 932 81 888 64 932 l 14 932 l 25 972 l 375 972 l 376 643 l 338 626 l 272 931 l 192 931 b 181 817 183 899 181 865 l 181 507 l 186 507 b 239 638 221 507 239 550 l 239 725 l 281 714 l 281 258 l 239 247 l 239 335 b 186 465 239 422 221 465 l 181 465 l 181 156 b 192 42 181 107 183 74 l 272 42 l 338 346 l 376 329 l 375 0 l 25 0 l 14 40 l 22 40 m 192 1154 l 199 1154 l 356 1021 l 328 1021 l 194 1069 l 63 1021 l 35 1021 "},"Ë":{"ha":390,"x_min":0,"x_max":0,"o":"m 22 40 b 81 194 64 40 81 85 l 81 778 b 22 932 81 888 64 932 l 14 932 l 25 972 l 375 972 l 376 643 l 338 626 l 272 931 l 192 931 b 181 817 183 899 181 865 l 181 507 l 186 507 b 239 638 221 507 239 550 l 239 725 l 281 714 l 281 258 l 239 247 l 239 335 b 186 465 239 422 221 465 l 181 465 l 181 156 b 192 42 181 107 183 74 l 272 42 l 338 346 l 376 329 l 375 0 l 25 0 l 14 40 l 22 40 m 74 1083 b 122 1142 74 1118 93 1142 b 171 1083 153 1142 171 1118 b 122 1028 171 1050 153 1028 b 74 1083 93 1028 74 1050 m 221 1083 b 269 1142 221 1118 240 1142 b 318 1083 300 1142 318 1118 b 269 1028 318 1050 300 1028 b 221 1083 240 1028 221 1050 "},"È":{"ha":390,"x_min":0,"x_max":0,"o":"m 22 40 b 81 194 64 40 81 85 l 81 778 b 22 932 81 888 64 932 l 14 932 l 25 972 l 375 972 l 376 643 l 338 626 l 272 931 l 192 931 b 181 817 183 899 181 865 l 181 507 l 186 507 b 239 638 221 507 239 550 l 239 725 l 281 714 l 281 258 l 239 247 l 239 335 b 186 465 239 422 221 465 l 181 465 l 181 156 b 192 42 181 107 183 74 l 272 42 l 338 346 l 376 329 l 375 0 l 25 0 l 14 40 l 22 40 m 17 1146 l 158 1146 l 238 1021 l 201 1021 l 17 1142 "},"F":{"ha":397,"x_min":0,"x_max":0,"o":"m 22 40 b 81 194 64 40 81 85 l 81 778 b 22 932 81 888 64 932 l 14 932 l 25 972 l 382 972 l 383 643 l 344 626 l 279 931 l 192 931 b 181 817 183 899 181 865 l 181 507 l 186 507 b 239 638 221 507 239 550 l 239 725 l 281 714 l 281 258 l 239 247 l 239 335 b 186 465 239 422 221 465 l 181 465 l 181 194 b 239 40 181 85 197 40 l 247 40 l 236 0 l 25 0 l 14 40 l 22 40 "},"G":{"ha":350,"x_min":0,"x_max":0,"o":"m 114 154 b 154 25 114 57 128 25 b 196 183 182 25 196 61 l 196 319 b 154 474 196 429 183 474 l 147 474 l 156 514 l 336 514 l 344 474 l 338 474 b 296 319 308 474 296 429 l 296 6 l 242 -10 b 221 31 242 6 239 31 b 139 -10 199 31 182 -10 b 14 278 65 -10 14 97 l 14 694 b 163 982 14 881 67 982 b 242 958 210 982 225 958 b 256 982 251 958 256 967 l 294 982 l 296 643 l 247 626 l 247 690 b 171 943 247 842 247 943 b 114 804 126 943 114 896 l 114 154 "},"H":{"ha":481,"x_min":0,"x_max":0,"o":"m 22 40 b 81 194 64 40 81 85 l 81 778 b 22 932 81 888 64 932 l 14 932 l 25 972 l 221 972 l 229 932 l 224 932 b 181 778 193 932 181 888 l 181 514 l 300 514 l 300 778 b 257 932 300 888 288 932 l 251 932 l 260 972 l 456 972 l 467 932 l 458 932 b 400 778 417 932 400 888 l 400 194 b 458 40 400 85 417 40 l 467 40 l 456 0 l 260 0 l 251 40 l 257 40 b 300 194 288 40 300 85 l 300 472 l 181 472 l 181 194 b 224 40 181 85 193 40 l 229 40 l 221 0 l 25 0 l 14 40 l 22 40 "},"I":{"ha":261,"x_min":0,"x_max":0,"o":"m 22 40 b 81 194 64 40 81 85 l 81 778 b 22 932 81 888 64 932 l 14 932 l 25 972 l 236 972 l 247 932 l 239 932 b 181 778 197 932 181 888 l 181 194 b 239 40 181 85 197 40 l 247 40 l 236 0 l 25 0 l 14 40 l 22 40 "},"Í":{"ha":261,"x_min":0,"x_max":0,"o":"m 22 40 b 81 194 64 40 81 85 l 81 778 b 22 932 81 888 64 932 l 14 932 l 25 972 l 236 972 l 247 932 l 239 932 b 181 778 197 932 181 888 l 181 194 b 239 40 181 85 197 40 l 247 40 l 236 0 l 25 0 l 14 40 l 22 40 m 168 1146 l 310 1146 l 310 1142 l 125 1021 l 89 1021 "},"Î":{"ha":261,"x_min":0,"x_max":0,"o":"m 22 40 b 81 194 64 40 81 85 l 81 778 b 22 932 81 888 64 932 l 14 932 l 25 972 l 236 972 l 247 932 l 239 932 b 181 778 197 932 181 888 l 181 194 b 239 40 181 85 197 40 l 247 40 l 236 0 l 25 0 l 14 40 l 22 40 m 126 1154 l 133 1154 l 290 1021 l 263 1021 l 129 1069 l -3 1021 l -31 1021 "},"Ï":{"ha":261,"x_min":0,"x_max":0,"o":"m 22 40 b 81 194 64 40 81 85 l 81 778 b 22 932 81 888 64 932 l 14 932 l 25 972 l 236 972 l 247 932 l 239 932 b 181 778 197 932 181 888 l 181 194 b 239 40 181 85 197 40 l 247 40 l 236 0 l 25 0 l 14 40 l 22 40 m 8 1083 b 57 1142 8 1118 28 1142 b 106 1083 88 1142 106 1118 b 57 1028 106 1050 88 1028 b 8 1083 28 1028 8 1050 m 156 1083 b 204 1142 156 1118 175 1142 b 253 1083 235 1142 253 1118 b 204 1028 253 1050 235 1028 b 156 1083 175 1028 156 1050 "},"Ì":{"ha":261,"x_min":0,"x_max":0,"o":"m 22 40 b 81 194 64 40 81 85 l 81 778 b 22 932 81 888 64 932 l 14 932 l 25 972 l 236 972 l 247 932 l 239 932 b 181 778 197 932 181 888 l 181 194 b 239 40 181 85 197 40 l 247 40 l 236 0 l 25 0 l 14 40 l 22 40 m -49 1146 l 93 1146 l 172 1021 l 136 1021 l -49 1142 "},"J":{"ha":347,"x_min":0,"x_max":0,"o":"m 100 932 l 111 972 l 322 972 l 333 932 l 325 932 b 267 778 283 932 267 888 l 267 194 b 136 -10 267 72 211 -10 b 7 165 69 -10 7 38 b 132 221 7 372 132 374 b 65 89 132 113 65 140 b 108 40 65 58 88 40 b 167 222 156 40 167 99 l 167 778 b 108 932 167 888 150 932 "},"K":{"ha":471,"x_min":0,"x_max":0,"o":"m 22 40 b 81 194 64 40 81 85 l 81 778 b 22 932 81 888 64 932 l 14 932 l 25 972 l 236 972 l 247 932 l 239 932 b 181 778 197 932 181 888 l 181 479 l 301 799 b 282 932 331 876 326 932 l 274 932 l 285 972 l 435 972 l 446 932 l 438 932 b 328 754 393 932 371 863 l 276 624 l 381 214 b 469 40 410 100 425 40 l 478 40 l 467 0 l 275 0 l 264 40 l 272 40 b 283 136 299 40 296 81 l 213 460 l 181 378 l 181 194 b 239 40 181 85 197 40 l 247 40 l 236 0 l 25 0 l 14 40 l 22 40 "},"L":{"ha":376,"x_min":0,"x_max":0,"o":"m 22 40 b 81 194 64 40 81 85 l 81 778 b 22 932 81 888 64 932 l 14 932 l 25 972 l 236 972 l 247 932 l 239 932 b 181 778 197 932 181 888 l 181 156 b 192 42 181 108 183 75 l 258 42 l 324 401 l 363 385 l 361 0 l 25 0 l 14 40 l 22 40 "},"M":{"ha":557,"x_min":0,"x_max":0,"o":"m 115 739 l 115 194 b 174 40 115 85 132 40 l 182 40 l 171 0 l 18 0 l 7 40 l 15 40 b 74 194 57 40 74 85 l 74 778 b 15 932 74 888 57 932 l 7 932 l 18 972 l 185 972 l 279 329 l 376 972 l 539 972 l 550 932 l 542 932 b 483 778 500 932 483 888 l 483 194 b 542 40 483 85 500 40 l 550 40 l 539 0 l 328 0 l 317 40 l 325 40 b 383 194 367 40 383 85 l 383 740 l 269 0 l 225 0 "},"N":{"ha":446,"x_min":0,"x_max":0,"o":"m 115 725 l 115 194 b 174 40 115 85 132 40 l 182 40 l 171 0 l 18 0 l 7 40 l 15 40 b 74 194 57 40 74 85 l 74 778 b 15 932 74 888 57 932 l 7 932 l 18 972 l 163 972 l 331 365 l 331 778 b 272 932 331 888 314 932 l 264 932 l 275 972 l 428 972 l 439 932 l 431 932 b 372 778 389 932 372 888 l 372 0 l 326 0 "},"O":{"ha":372,"x_min":0,"x_max":0,"o":"m 121 154 b 186 25 121 64 140 25 b 251 154 232 25 251 64 l 251 818 b 186 947 251 908 232 947 b 121 818 140 947 121 908 l 121 154 m 21 694 b 186 982 21 889 74 982 b 351 694 299 982 351 889 l 351 278 b 186 -10 351 83 299 -10 b 21 278 74 -10 21 83 "},"Ó":{"ha":372,"x_min":0,"x_max":0,"o":"m 121 154 b 186 25 121 64 140 25 b 251 154 232 25 251 64 l 251 818 b 186 947 251 908 232 947 b 121 818 140 947 121 908 l 121 154 m 21 694 b 186 982 21 889 74 982 b 351 694 299 982 351 889 l 351 278 b 186 -10 351 83 299 -10 b 21 278 74 -10 21 83 m 224 1146 l 365 1146 l 365 1142 l 181 1021 l 144 1021 "},"Ô":{"ha":372,"x_min":0,"x_max":0,"o":"m 121 154 b 186 25 121 64 140 25 b 251 154 232 25 251 64 l 251 818 b 186 947 251 908 232 947 b 121 818 140 947 121 908 l 121 154 m 21 694 b 186 982 21 889 74 982 b 351 694 299 982 351 889 l 351 278 b 186 -10 351 83 299 -10 b 21 278 74 -10 21 83 m 182 1154 l 189 1154 l 346 1021 l 318 1021 l 185 1069 l 53 1021 l 25 1021 "},"Ö":{"ha":372,"x_min":0,"x_max":0,"o":"m 121 154 b 186 25 121 64 140 25 b 251 154 232 25 251 64 l 251 818 b 186 947 251 908 232 947 b 121 818 140 947 121 908 l 121 154 m 21 694 b 186 982 21 889 74 982 b 351 694 299 982 351 889 l 351 278 b 186 -10 351 83 299 -10 b 21 278 74 -10 21 83 m 64 1083 b 113 1142 64 1118 83 1142 b 161 1083 143 1142 161 1118 b 113 1028 161 1050 143 1028 b 64 1083 83 1028 64 1050 m 211 1083 b 260 1142 211 1118 231 1142 b 308 1083 290 1142 308 1118 b 260 1028 308 1050 290 1028 b 211 1083 231 1028 211 1050 "},"Ò":{"ha":372,"x_min":0,"x_max":0,"o":"m 121 154 b 186 25 121 64 140 25 b 251 154 232 25 251 64 l 251 818 b 186 947 251 908 232 947 b 121 818 140 947 121 908 l 121 154 m 7 1146 l 149 1146 l 228 1021 l 192 1021 l 7 1142 m 21 694 b 186 982 21 889 74 982 b 351 694 299 982 351 889 l 351 278 b 186 -10 351 83 299 -10 b 21 278 74 -10 21 83 "},"Œ":{"ha":533,"x_min":0,"x_max":0,"o":"m 121 140 b 190 42 121 71 142 42 l 214 42 b 224 156 221 72 224 106 l 224 817 b 214 931 224 867 221 900 l 190 931 b 121 832 142 931 121 901 l 121 140 m 21 685 b 182 972 21 865 75 972 l 518 972 l 519 643 l 481 626 l 415 931 l 335 931 b 324 817 326 899 324 865 l 324 507 l 329 507 b 382 638 364 507 382 550 l 382 725 l 424 714 l 424 258 l 382 247 l 382 335 b 329 465 382 422 364 465 l 324 465 l 324 156 b 335 42 324 107 326 74 l 415 42 l 481 346 l 519 329 l 518 0 l 182 0 b 21 288 75 0 21 107 "},"P":{"ha":386,"x_min":0,"x_max":0,"o":"m 22 40 b 81 194 64 40 81 85 l 81 778 b 22 932 81 888 64 932 l 14 932 l 25 972 l 233 972 b 372 749 329 972 372 903 l 372 663 b 233 439 372 508 329 439 l 181 439 l 181 194 b 239 40 181 85 197 40 l 247 40 l 236 0 l 25 0 l 14 40 l 22 40 m 217 481 b 272 579 260 481 272 503 l 272 832 b 217 931 272 908 260 931 l 192 931 b 181 817 183 899 181 865 l 181 481 "},"Q":{"ha":358,"x_min":0,"x_max":0,"o":"m 14 694 b 179 982 14 889 67 982 b 344 694 292 982 344 889 l 344 278 b 288 38 344 163 326 83 b 319 -33 292 -4 297 -33 b 351 46 342 -33 351 -4 l 372 33 b 318 -149 383 -47 379 -149 b 246 4 265 -149 250 -78 b 179 -10 226 -6 204 -10 b 14 278 67 -10 14 83 l 14 694 m 114 242 b 179 269 129 260 151 269 b 244 240 208 269 229 258 l 244 818 b 179 947 244 908 225 947 b 114 818 133 947 114 908 l 114 242 m 114 131 b 179 25 118 57 138 25 b 244 139 225 25 244 64 b 179 235 244 181 225 235 b 114 131 132 235 115 182 "},"R":{"ha":428,"x_min":0,"x_max":0,"o":"m 22 40 b 81 194 64 40 81 85 l 81 778 b 22 932 81 888 64 932 l 14 932 l 25 972 l 233 972 b 372 749 329 972 372 903 l 372 721 b 268 501 372 588 340 517 b 368 335 336 483 368 431 l 368 194 b 426 40 368 85 385 40 l 435 40 l 424 0 l 318 0 b 261 142 281 13 261 61 l 261 396 b 181 496 261 464 242 492 l 181 194 b 239 40 181 85 197 40 l 247 40 l 236 0 l 25 0 l 14 40 l 22 40 m 217 539 b 272 638 260 539 272 561 l 272 832 b 217 931 272 908 260 931 l 192 931 b 181 817 183 899 181 865 l 181 539 "},"S":{"ha":358,"x_min":0,"x_max":0,"o":"m 100 844 b 154 940 100 897 118 940 b 258 638 225 940 258 733 l 258 626 l 307 643 l 307 956 l 268 972 b 253 935 268 960 265 935 b 153 982 235 935 213 982 b 28 782 72 982 28 894 b 254 142 28 525 254 363 b 196 32 254 72 231 32 b 81 342 121 32 81 225 l 81 346 l 32 329 l 32 11 l 71 0 b 86 38 71 15 74 38 b 193 -10 103 38 132 -10 b 331 210 267 -10 331 60 b 100 844 331 496 100 656 "},"T":{"ha":400,"x_min":0,"x_max":0,"o":"m 92 40 b 150 194 133 40 150 85 l 150 931 l 107 931 l 49 599 l 10 615 l 11 972 l 389 972 l 390 615 l 351 599 l 293 931 l 250 931 l 250 194 b 308 40 250 85 267 40 l 317 40 l 306 0 l 94 0 l 83 40 l 92 40 "},"U":{"ha":426,"x_min":0,"x_max":0,"o":"m 14 932 l 25 972 l 236 972 l 247 932 l 239 932 b 181 778 197 932 181 888 l 181 169 b 249 29 181 75 203 29 b 325 154 296 29 325 78 l 325 778 b 267 932 325 888 308 932 l 258 932 l 269 972 l 422 972 l 433 932 l 425 932 b 367 778 383 932 367 888 l 367 157 b 232 -10 367 50 319 -10 b 81 194 136 -10 81 64 l 81 778 b 22 932 81 888 64 932 "},"Ú":{"ha":426,"x_min":0,"x_max":0,"o":"m 14 932 l 25 972 l 236 972 l 247 932 l 239 932 b 181 778 197 932 181 888 l 181 169 b 249 29 181 75 203 29 b 325 154 296 29 325 78 l 325 778 b 267 932 325 888 308 932 l 258 932 l 269 972 l 422 972 l 433 932 l 425 932 b 367 778 383 932 367 888 l 367 157 b 232 -10 367 50 319 -10 b 81 194 136 -10 81 64 l 81 778 b 22 932 81 888 64 932 m 268 1146 l 410 1146 l 410 1142 l 225 1021 l 189 1021 "},"Û":{"ha":426,"x_min":0,"x_max":0,"o":"m 14 932 l 25 972 l 236 972 l 247 932 l 239 932 b 181 778 197 932 181 888 l 181 169 b 249 29 181 75 203 29 b 325 154 296 29 325 78 l 325 778 b 267 932 325 888 308 932 l 258 932 l 269 972 l 422 972 l 433 932 l 425 932 b 367 778 383 932 367 888 l 367 157 b 232 -10 367 50 319 -10 b 81 194 136 -10 81 64 l 81 778 b 22 932 81 888 64 932 m 226 1154 l 233 1154 l 390 1021 l 363 1021 l 229 1069 l 97 1021 l 69 1021 "},"Ü":{"ha":426,"x_min":0,"x_max":0,"o":"m 14 932 l 25 972 l 236 972 l 247 932 l 239 932 b 181 778 197 932 181 888 l 181 169 b 249 29 181 75 203 29 b 325 154 296 29 325 78 l 325 778 b 267 932 325 888 308 932 l 258 932 l 269 972 l 422 972 l 433 932 l 425 932 b 367 778 383 932 367 888 l 367 157 b 232 -10 367 50 319 -10 b 81 194 136 -10 81 64 l 81 778 b 22 932 81 888 64 932 m 108 1083 b 157 1142 108 1118 128 1142 b 206 1083 188 1142 206 1118 b 157 1028 206 1050 188 1028 b 108 1083 128 1028 108 1050 m 256 1083 b 304 1142 256 1118 275 1142 b 353 1083 335 1142 353 1118 b 304 1028 353 1050 335 1028 b 256 1083 275 1028 256 1050 "},"Ù":{"ha":426,"x_min":0,"x_max":0,"o":"m 14 932 l 25 972 l 236 972 l 247 932 l 239 932 b 181 778 197 932 181 888 l 181 169 b 249 29 181 75 203 29 b 325 154 296 29 325 78 l 325 778 b 267 932 325 888 308 932 l 258 932 l 269 972 l 422 972 l 433 932 l 425 932 b 367 778 383 932 367 888 l 367 157 b 232 -10 367 50 319 -10 b 81 194 136 -10 81 64 l 81 778 b 22 932 81 888 64 932 m 69 1181 l 211 1181 l 290 1056 l 254 1056 l 69 1176 "},"V":{"ha":454,"x_min":0,"x_max":0,"o":"m 276 0 l 201 0 l 104 754 b 15 932 89 869 60 932 l 7 932 l 18 972 l 238 972 l 249 932 l 240 932 b 207 799 196 932 197 881 l 269 260 l 328 799 b 294 932 336 881 325 932 l 286 932 l 297 972 l 436 972 l 447 932 l 439 932 b 364 754 394 932 378 869 "},"W":{"ha":642,"x_min":0,"x_max":0,"o":"m 460 0 l 406 0 l 328 599 l 256 0 l 201 0 l 104 754 b 15 932 89 869 60 932 l 7 932 l 18 972 l 442 972 l 453 932 l 444 932 b 411 799 400 932 404 881 l 457 299 l 515 799 b 482 932 525 881 513 932 l 474 932 l 485 972 l 624 972 l 635 932 l 626 932 b 551 754 582 932 565 869 m 253 299 l 307 764 b 238 932 292 872 276 932 l 236 932 b 207 799 196 932 200 881 "},"X":{"ha":461,"x_min":0,"x_max":0,"o":"m 114 754 b 25 932 83 869 69 932 l 17 932 l 28 972 l 236 972 l 247 932 l 239 932 b 206 799 194 932 185 879 l 253 618 l 301 799 b 279 932 322 876 324 932 l 275 932 l 286 972 l 429 972 l 440 932 l 432 932 b 331 754 388 932 361 865 l 272 543 l 369 165 b 446 40 392 85 408 40 l 454 40 l 443 0 l 235 0 l 224 40 l 232 40 b 265 171 276 40 286 90 l 201 417 l 138 174 b 164 40 117 94 119 40 l 172 40 l 161 0 l 14 0 l 3 40 l 11 40 b 108 218 56 40 79 106 l 182 494 l 114 754 "},"Y":{"ha":419,"x_min":0,"x_max":0,"o":"m 115 40 b 174 194 157 40 174 85 l 174 431 l 104 754 b 15 932 79 871 60 932 l 7 932 l 18 972 l 232 972 l 243 932 l 235 932 b 201 799 190 932 186 881 l 253 518 l 304 799 b 275 932 319 881 306 932 l 267 932 l 278 972 l 408 972 l 419 932 l 411 932 b 336 754 367 932 358 869 l 274 433 l 274 194 b 332 40 274 85 290 40 l 340 40 l 329 0 l 118 0 l 107 40 l 115 40 "},"Z":{"ha":368,"x_min":0,"x_max":0,"o":"m 354 929 l 124 42 l 228 42 l 315 378 l 354 361 l 338 0 l 14 0 l 14 42 l 244 931 l 150 931 l 81 608 l 42 625 l 42 972 l 354 972 "},"a":{"ha":349,"x_min":0,"x_max":0,"o":"m 196 582 b 150 718 196 672 188 718 b 104 668 124 718 104 694 b 154 544 104 626 154 621 b 40 568 154 435 40 410 b 168 753 40 683 89 753 b 289 507 251 753 289 676 l 289 153 b 307 75 289 99 294 75 b 325 121 317 75 324 92 l 342 113 b 268 -10 342 43 310 -10 b 199 97 232 -10 208 31 l 197 97 b 107 -10 176 14 139 -10 b 18 158 72 -10 18 18 b 196 558 18 413 196 404 l 196 582 m 108 200 b 147 79 108 126 124 79 b 196 194 181 79 196 151 l 196 447 l 194 447 b 108 200 178 407 108 351 "},"á":{"ha":349,"x_min":0,"x_max":0,"o":"m 196 582 b 150 718 196 672 188 718 b 104 668 124 718 104 694 b 154 544 104 626 154 621 b 40 568 154 435 40 410 b 168 753 40 683 89 753 b 289 507 251 753 289 676 l 289 153 b 307 75 289 99 294 75 b 325 121 317 75 324 92 l 342 113 b 268 -10 342 43 310 -10 b 199 97 232 -10 208 31 l 197 97 b 107 -10 176 14 139 -10 b 18 158 72 -10 18 18 b 196 558 18 413 196 404 l 196 582 m 108 200 b 147 79 108 126 124 79 b 196 194 181 79 196 151 l 196 447 l 194 447 b 108 200 178 407 108 351 m 192 917 l 333 917 l 333 913 l 149 792 l 113 792 "},"â":{"ha":349,"x_min":0,"x_max":0,"o":"m 196 582 b 150 718 196 672 188 718 b 104 668 124 718 104 694 b 154 544 104 626 154 621 b 40 568 154 435 40 410 b 168 753 40 683 89 753 b 289 507 251 753 289 676 l 289 153 b 307 75 289 99 294 75 b 325 121 317 75 324 92 l 342 113 b 268 -10 342 43 310 -10 b 199 97 232 -10 208 31 l 197 97 b 107 -10 176 14 139 -10 b 18 158 72 -10 18 18 b 196 558 18 413 196 404 l 196 582 m 158 958 l 165 958 l 281 792 l 256 792 l 161 847 l 68 792 l 43 792 m 108 200 b 147 79 108 126 124 79 b 196 194 181 79 196 151 l 196 447 l 194 447 b 108 200 178 407 108 351 "},"ä":{"ha":349,"x_min":0,"x_max":0,"o":"m 196 582 b 150 718 196 672 188 718 b 104 668 124 718 104 694 b 154 544 104 626 154 621 b 40 568 154 435 40 410 b 168 753 40 683 89 753 b 289 507 251 753 289 676 l 289 153 b 307 75 289 99 294 75 b 325 121 317 75 324 92 l 342 113 b 268 -10 342 43 310 -10 b 199 97 232 -10 208 31 l 197 97 b 107 -10 176 14 139 -10 b 18 158 72 -10 18 18 b 196 558 18 413 196 404 l 196 582 m 39 850 b 88 908 39 885 58 908 b 136 850 118 908 136 885 b 88 794 136 817 118 794 b 39 850 58 794 39 817 m 108 200 b 147 79 108 126 124 79 b 196 194 181 79 196 151 l 196 447 l 194 447 b 108 200 178 407 108 351 m 186 850 b 235 908 186 885 206 908 b 283 850 265 908 283 885 b 235 794 283 817 265 794 b 186 850 206 794 186 817 "},"à":{"ha":349,"x_min":0,"x_max":0,"o":"m 196 582 b 150 718 196 672 188 718 b 104 668 124 718 104 694 b 154 544 104 626 154 621 b 40 568 154 435 40 410 b 168 753 40 683 89 753 b 289 507 251 753 289 676 l 289 153 b 307 75 289 99 294 75 b 325 121 317 75 324 92 l 342 113 b 268 -10 342 43 310 -10 b 199 97 232 -10 208 31 l 197 97 b 107 -10 176 14 139 -10 b 18 158 72 -10 18 18 b 196 558 18 413 196 404 l 196 582 m -11 917 l 131 917 l 210 792 l 174 792 l -11 913 m 108 200 b 147 79 108 126 124 79 b 196 194 181 79 196 151 l 196 447 l 194 447 b 108 200 178 407 108 351 "},"æ":{"ha":486,"x_min":0,"x_max":0,"o":"m 196 582 b 150 718 196 672 188 718 b 104 668 124 718 104 694 b 154 544 104 626 154 621 b 96 457 154 492 131 457 b 40 568 60 457 40 496 b 168 753 40 683 89 753 b 247 714 201 753 228 740 b 335 753 269 740 299 753 b 469 451 426 753 469 658 l 469 382 l 289 382 l 289 126 b 343 25 294 57 311 25 b 424 267 397 25 422 107 l 464 250 b 338 -10 464 71 426 -8 l 336 -10 b 335 -10 336 -10 335 -10 b 264 13 307 -10 283 -3 b 200 108 235 33 210 67 b 107 -10 179 15 140 -10 b 18 161 72 -10 18 18 b 194 535 18 399 167 389 b 196 543 196 538 196 540 l 196 582 m 108 200 b 147 79 108 126 124 79 b 196 181 181 79 196 165 l 196 200 b 192 306 193 232 192 267 l 192 438 l 192 442 b 108 200 171 392 108 347 m 286 575 b 289 507 288 554 289 532 l 289 413 b 375 458 346 418 375 433 l 375 582 b 332 718 375 668 364 718 b 286 575 301 718 289 674 "},"b":{"ha":368,"x_min":0,"x_max":0,"o":"m 67 778 b 18 932 67 883 51 932 l 7 932 l 18 972 l 160 972 l 160 682 b 238 753 178 731 201 753 b 351 438 314 753 351 650 l 351 306 b 233 -10 351 97 311 -10 b 132 65 164 -10 163 65 b 106 0 114 65 111 36 l 67 0 m 160 263 b 215 57 160 114 175 57 b 257 179 246 57 257 89 l 257 564 b 217 686 257 654 247 686 b 160 481 176 686 160 628 l 160 263 "},"c":{"ha":297,"x_min":0,"x_max":0,"o":"m 275 250 b 154 -10 275 71 244 -10 b 17 306 57 -10 17 86 l 17 438 b 153 753 17 644 65 753 b 281 568 240 753 281 669 b 167 544 281 410 167 435 b 217 668 167 621 217 626 b 172 718 217 694 197 717 b 111 540 128 717 111 665 l 111 203 b 164 25 111 78 125 25 b 235 267 213 25 233 101 l 275 250 "},"d":{"ha":372,"x_min":0,"x_max":0,"o":"m 215 86 b 132 -10 196 18 172 -10 b 14 306 54 -10 14 97 l 14 438 b 128 753 14 650 51 753 b 206 682 164 753 188 731 l 206 778 b 157 932 206 883 190 932 l 146 932 l 157 972 l 299 972 l 299 194 b 347 40 299 89 314 40 l 358 40 l 347 0 l 215 0 m 108 179 b 150 57 108 89 119 57 b 206 263 190 57 206 114 l 206 481 b 149 686 206 628 189 686 b 108 564 118 686 108 654 l 108 179 "},"e":{"ha":311,"x_min":0,"x_max":0,"o":"m 289 250 b 160 -10 289 69 250 -10 b 17 306 60 -10 17 86 l 17 438 b 160 753 17 658 60 753 b 294 451 251 753 294 658 l 294 382 l 111 382 l 111 203 b 168 25 111 79 126 25 b 249 267 222 25 247 107 l 289 250 m 111 413 b 200 458 171 417 200 432 l 200 582 b 157 718 200 668 189 718 b 111 540 122 718 111 663 l 111 413 "},"é":{"ha":311,"x_min":0,"x_max":0,"o":"m 289 250 b 160 -10 289 69 250 -10 b 17 306 60 -10 17 86 l 17 438 b 160 753 17 658 60 753 b 294 451 251 753 294 658 l 294 382 l 111 382 l 111 203 b 168 25 111 79 126 25 b 249 267 222 25 247 107 l 289 250 m 111 413 b 200 458 171 417 200 432 l 200 582 b 157 718 200 668 189 718 b 111 540 122 718 111 663 l 111 413 m 190 917 l 332 917 l 332 913 l 147 792 l 111 792 "},"ê":{"ha":311,"x_min":0,"x_max":0,"o":"m 289 250 b 160 -10 289 69 250 -10 b 17 306 60 -10 17 86 l 17 438 b 160 753 17 658 60 753 b 294 451 251 753 294 658 l 294 382 l 111 382 l 111 203 b 168 25 111 79 126 25 b 249 267 222 25 247 107 l 289 250 m 157 958 l 164 958 l 279 792 l 254 792 l 160 847 l 67 792 l 42 792 m 111 413 b 200 458 171 417 200 432 l 200 582 b 157 718 200 668 189 718 b 111 540 122 718 111 663 l 111 413 "},"ë":{"ha":311,"x_min":0,"x_max":0,"o":"m 289 250 b 160 -10 289 69 250 -10 b 17 306 60 -10 17 86 l 17 438 b 160 753 17 658 60 753 b 294 451 251 753 294 658 l 294 382 l 111 382 l 111 203 b 168 25 111 79 126 25 b 249 267 222 25 247 107 l 289 250 m 38 850 b 86 908 38 885 57 908 b 135 850 117 908 135 885 b 86 794 135 817 117 794 b 38 850 57 794 38 817 m 111 413 b 200 458 171 417 200 432 l 200 582 b 157 718 200 668 189 718 b 111 540 122 718 111 663 l 111 413 m 185 850 b 233 908 185 885 204 908 b 282 850 264 908 282 885 b 233 794 282 817 264 794 b 185 850 204 794 185 817 "},"è":{"ha":311,"x_min":0,"x_max":0,"o":"m 289 250 b 160 -10 289 69 250 -10 b 17 306 60 -10 17 86 l 17 438 b 160 753 17 658 60 753 b 294 451 251 753 294 658 l 294 382 l 111 382 l 111 203 b 168 25 111 79 126 25 b 249 267 222 25 247 107 l 289 250 m -12 917 l 129 917 l 208 792 l 172 792 l -12 913 m 111 413 b 200 458 171 417 200 432 l 200 582 b 157 718 200 668 189 718 b 111 540 122 718 111 663 l 111 413 "},"f":{"ha":269,"x_min":0,"x_max":0,"o":"m 17 703 l 28 743 l 83 743 l 83 825 b 167 1004 83 940 115 1004 b 269 817 221 1004 269 932 b 153 776 269 668 153 674 b 206 924 153 843 206 882 b 168 968 206 947 189 968 b 122 843 140 968 122 921 b 214 674 122 707 176 674 l 232 674 l 243 633 l 235 633 b 176 479 193 633 176 589 l 176 194 b 225 40 176 89 192 40 l 236 40 l 225 0 l 35 0 l 24 40 l 35 40 b 83 194 68 40 83 89 l 83 549 b 25 703 83 658 67 703 "},"g":{"ha":406,"x_min":0,"x_max":0,"o":"m 138 372 b 171 276 138 303 150 276 b 204 372 192 276 204 303 l 204 631 b 171 728 204 701 192 728 b 138 631 150 728 138 701 l 138 372 m 14 -12 b 65 85 14 29 35 71 b 25 165 42 94 25 124 b 92 279 25 239 78 274 b 43 476 60 311 43 372 l 43 528 b 171 753 43 696 88 753 b 267 700 213 753 246 738 b 349 753 285 735 313 753 b 426 664 397 753 426 719 b 315 621 426 538 315 550 b 351 699 315 661 351 664 b 335 719 351 713 346 719 b 294 607 307 719 288 667 b 299 528 297 585 299 558 l 299 476 b 171 250 299 306 254 250 b 135 254 158 250 146 251 b 88 192 99 264 88 218 b 235 178 88 119 168 178 b 356 8 319 178 356 83 b 183 -149 356 -58 328 -149 b 14 -12 38 -149 14 -56 m 53 -24 b 186 -118 53 -71 90 -118 b 317 -1 283 -118 317 -69 b 140 43 317 107 231 67 b 53 -24 92 31 53 24 "},"h":{"ha":433,"x_min":0,"x_max":0,"o":"m 18 40 l 29 40 b 78 194 63 40 78 89 l 78 778 b 29 932 78 883 63 932 l 18 932 l 29 972 l 171 972 l 171 658 b 261 753 186 724 214 753 b 360 590 322 753 360 692 l 360 194 b 408 40 360 89 375 40 l 419 40 l 408 0 l 243 0 l 232 40 b 267 194 267 40 267 89 l 267 569 b 231 676 267 643 256 676 b 171 358 189 676 171 579 l 171 194 b 206 40 171 89 171 40 l 194 0 l 29 0 "},"i":{"ha":244,"x_min":0,"x_max":0,"o":"m 18 40 l 29 40 b 78 194 63 40 78 89 l 78 549 b 29 703 78 654 63 703 l 18 703 l 29 743 l 171 743 l 171 194 b 219 40 171 89 186 40 l 231 40 l 219 0 l 29 0 m 57 904 b 124 982 57 953 82 982 b 190 904 165 982 190 953 b 124 826 190 857 165 826 b 57 904 83 826 57 857 "},"ı":{"ha":244,"x_min":0,"x_max":0,"o":"m 18 40 l 29 40 b 78 194 63 40 78 89 l 78 549 b 29 703 78 654 63 703 l 18 703 l 29 743 l 171 743 l 171 194 b 219 40 171 89 186 40 l 231 40 l 219 0 l 29 0 "},"í":{"ha":244,"x_min":0,"x_max":0,"o":"m 18 40 l 29 40 b 78 194 63 40 78 89 l 78 549 b 29 703 78 654 63 703 l 18 703 l 29 743 l 171 743 l 171 194 b 219 40 171 89 186 40 l 231 40 l 219 0 l 29 0 m 153 917 l 294 917 l 294 913 l 110 792 l 74 792 "},"î":{"ha":244,"x_min":0,"x_max":0,"o":"m 18 40 l 29 40 b 78 194 63 40 78 89 l 78 549 b 29 703 78 654 63 703 l 18 703 l 29 743 l 171 743 l 171 194 b 219 40 171 89 186 40 l 231 40 l 219 0 l 29 0 m 119 958 l 126 958 l 242 792 l 217 792 l 122 847 l 29 792 l 4 792 "},"ï":{"ha":244,"x_min":0,"x_max":0,"o":"m 18 40 l 29 40 b 78 194 63 40 78 89 l 78 549 b 29 703 78 654 63 703 l 18 703 l 29 743 l 171 743 l 171 194 b 219 40 171 89 186 40 l 231 40 l 219 0 l 29 0 m 0 850 b 49 908 0 885 19 908 b 97 850 79 908 97 885 b 49 794 97 817 79 794 b 0 850 19 794 0 817 m 147 850 b 196 908 147 885 167 908 b 244 850 226 908 244 885 b 196 794 244 817 226 794 b 147 850 167 794 147 817 "},"ì":{"ha":244,"x_min":0,"x_max":0,"o":"m 18 40 l 29 40 b 78 194 63 40 78 89 l 78 549 b 29 703 78 654 63 703 l 18 703 l 29 743 l 171 743 l 171 194 b 219 40 171 89 186 40 l 231 40 l 219 0 l 29 0 m -50 917 l 92 917 l 171 792 l 135 792 l -50 913 "},"j":{"ha":222,"x_min":0,"x_max":0,"o":"m 72 904 b 139 982 72 953 97 982 b 206 904 181 982 206 953 b 139 826 206 857 181 826 b 72 904 99 826 72 857 m 0 39 b 119 79 0 199 119 182 b 64 -69 119 10 64 -19 b 100 -111 64 -99 83 -111 b 146 40 122 -111 146 -83 b 96 279 146 185 96 167 l 96 549 b 47 703 96 654 81 703 l 36 703 l 47 743 l 189 743 l 189 31 b 106 -149 189 -85 154 -149 b 0 39 49 -149 0 -65 "},"k":{"ha":422,"x_min":0,"x_max":0,"o":"m 18 40 l 29 40 b 78 194 63 40 78 89 l 78 778 b 29 932 78 883 63 932 l 18 932 l 29 972 l 171 972 l 171 350 l 242 569 b 222 703 267 647 267 703 l 214 703 l 225 743 l 375 743 l 386 703 l 378 703 b 268 525 333 703 306 636 l 261 503 l 328 215 b 414 40 354 103 369 40 l 422 40 l 411 0 l 244 0 l 233 40 b 243 167 264 40 258 86 l 211 353 l 171 233 l 171 194 b 206 40 171 89 171 40 l 194 0 l 29 0 "},"l":{"ha":244,"x_min":0,"x_max":0,"o":"m 18 40 l 29 40 b 78 194 63 40 78 89 l 78 778 b 29 932 78 883 63 932 l 18 932 l 29 972 l 171 972 l 171 194 b 219 40 171 89 186 40 l 231 40 l 219 0 l 29 0 "},"m":{"ha":608,"x_min":0,"x_max":0,"o":"m 18 40 l 29 40 b 78 194 63 40 78 89 l 78 549 b 29 703 78 654 63 703 l 18 703 l 29 743 l 171 743 l 171 661 b 257 753 186 725 213 753 b 349 647 304 753 336 714 b 439 753 365 722 393 753 b 535 590 497 753 535 692 l 535 194 b 583 40 535 89 550 40 l 594 40 l 583 0 l 418 0 l 407 40 b 442 194 442 40 442 89 l 442 569 b 410 676 442 643 433 676 b 353 358 369 676 353 579 l 353 194 b 388 40 353 89 353 40 l 376 0 l 236 0 l 225 40 b 260 194 260 40 260 89 l 260 569 b 228 676 260 643 251 676 b 171 358 188 676 171 579 l 171 194 b 206 40 171 89 171 40 l 194 0 l 29 0 "},"n":{"ha":424,"x_min":0,"x_max":0,"o":"m 13 40 l 24 40 b 72 194 57 40 72 89 l 72 549 b 24 703 72 654 57 703 l 13 703 l 24 743 l 165 743 l 165 658 b 256 753 181 724 208 753 b 354 590 317 753 354 692 l 354 194 b 403 40 354 89 369 40 l 414 40 l 403 0 l 238 0 l 226 40 b 261 194 261 40 261 89 l 261 569 b 225 676 261 643 250 676 b 165 358 183 676 165 579 l 165 194 b 200 40 165 89 165 40 l 189 0 l 24 0 "},"o":{"ha":319,"x_min":0,"x_max":0,"o":"m 111 161 b 160 25 111 64 131 25 b 208 161 189 25 208 64 l 208 582 b 160 718 208 679 189 718 b 111 582 131 718 111 679 l 111 161 m 17 438 b 160 753 17 675 67 753 b 303 438 253 753 303 675 l 303 306 b 160 -10 303 68 253 -10 b 17 306 67 -10 17 68 "},"ó":{"ha":319,"x_min":0,"x_max":0,"o":"m 111 161 b 160 25 111 64 131 25 b 208 161 189 25 208 64 l 208 582 b 160 718 208 679 189 718 b 111 582 131 718 111 679 l 111 161 m 17 438 b 160 753 17 675 67 753 b 303 438 253 753 303 675 l 303 306 b 160 -10 303 68 253 -10 b 17 306 67 -10 17 68 m 190 917 l 332 917 l 332 913 l 147 792 l 111 792 "},"ô":{"ha":319,"x_min":0,"x_max":0,"o":"m 111 161 b 160 25 111 64 131 25 b 208 161 189 25 208 64 l 208 582 b 160 718 208 679 189 718 b 111 582 131 718 111 679 l 111 161 m 17 438 b 160 753 17 675 67 753 b 303 438 253 753 303 675 l 303 306 b 160 -10 303 68 253 -10 b 17 306 67 -10 17 68 m 157 958 l 164 958 l 279 792 l 254 792 l 160 847 l 67 792 l 42 792 "},"ö":{"ha":319,"x_min":0,"x_max":0,"o":"m 111 161 b 160 25 111 64 131 25 b 208 161 189 25 208 64 l 208 582 b 160 718 208 679 189 718 b 111 582 131 718 111 679 l 111 161 m 17 438 b 160 753 17 675 67 753 b 303 438 253 753 303 675 l 303 306 b 160 -10 303 68 253 -10 b 17 306 67 -10 17 68 m 38 850 b 86 908 38 885 57 908 b 135 850 117 908 135 885 b 86 794 135 817 117 794 b 38 850 57 794 38 817 m 185 850 b 233 908 185 885 204 908 b 282 850 264 908 282 885 b 233 794 282 817 264 794 b 185 850 204 794 185 817 "},"ò":{"ha":319,"x_min":0,"x_max":0,"o":"m 111 161 b 160 25 111 64 131 25 b 208 161 189 25 208 64 l 208 582 b 160 718 208 679 189 718 b 111 582 131 718 111 679 l 111 161 m -12 917 l 129 917 l 208 792 l 172 792 l -12 913 m 17 438 b 160 753 17 675 67 753 b 303 438 253 753 303 675 l 303 306 b 160 -10 303 68 253 -10 b 17 306 67 -10 17 68 "},"œ":{"ha":503,"x_min":0,"x_max":0,"o":"m 111 161 b 160 25 111 64 131 25 b 208 161 189 25 208 64 l 208 582 b 160 718 208 679 189 718 b 111 582 131 718 111 679 l 111 161 m 17 438 b 160 753 17 675 67 753 b 256 703 200 753 232 739 b 351 753 279 736 310 753 b 486 451 443 753 486 658 l 486 382 l 303 382 l 303 203 b 360 25 303 79 318 25 b 440 267 414 25 439 107 l 481 250 b 351 -10 481 69 442 -10 b 256 40 310 -10 279 7 b 160 -10 232 6 200 -10 b 17 306 67 -10 17 68 m 303 413 b 392 458 363 417 392 432 l 392 582 b 349 718 392 668 381 718 b 303 540 314 718 303 663 l 303 413 "},"p":{"ha":379,"x_min":0,"x_max":0,"o":"m 29 -99 b 78 56 63 -99 78 -50 l 78 549 b 29 703 78 654 63 703 l 18 703 l 29 743 l 161 743 l 161 657 b 244 753 181 725 204 753 b 363 438 322 753 363 646 l 363 306 b 249 -10 363 93 325 -10 b 171 61 213 -10 189 13 l 171 56 b 219 -99 171 -50 186 -99 l 231 -99 l 219 -139 l 29 -139 l 18 -99 l 29 -99 m 171 263 b 228 57 171 115 188 57 b 268 179 258 57 268 89 l 268 564 b 226 686 268 654 257 686 b 171 481 186 686 171 629 l 171 263 "},"q":{"ha":375,"x_min":0,"x_max":0,"o":"m 160 -99 b 208 56 193 -99 208 -50 l 208 61 b 131 -10 190 13 167 -10 b 17 306 54 -10 17 93 l 17 438 b 135 753 17 646 57 753 b 236 678 204 753 206 678 b 263 743 254 678 257 707 l 315 743 b 301 465 301 664 301 558 l 301 56 b 350 -99 301 -50 317 -99 l 361 -99 l 350 -139 l 160 -139 l 149 -99 l 160 -99 m 111 179 b 151 57 111 89 121 57 b 208 263 192 57 208 115 l 208 481 b 153 686 208 629 193 686 b 111 564 122 686 111 654 l 111 179 "},"r":{"ha":344,"x_min":0,"x_max":0,"o":"m 219 0 l 29 0 l 18 40 l 29 40 b 78 194 63 40 78 89 l 78 549 b 29 703 78 654 63 703 l 18 703 l 29 743 l 171 743 l 171 667 b 250 753 189 722 215 753 b 344 568 322 753 344 650 b 231 531 344 408 231 433 b 286 668 231 608 286 624 b 249 711 286 692 278 711 b 171 414 196 711 171 600 l 171 194 b 219 40 171 89 186 40 l 231 40 "},"s":{"ha":332,"x_min":0,"x_max":0,"o":"m 104 639 b 149 711 104 690 124 711 b 244 503 203 711 235 613 l 246 488 l 288 504 l 288 733 l 251 746 b 238 724 251 738 251 724 b 142 753 215 724 192 753 b 24 596 71 753 24 692 b 228 124 24 397 228 340 b 181 32 228 54 207 32 b 72 265 122 32 78 149 l 71 296 l 29 279 l 29 7 l 67 -3 b 81 26 67 10 67 26 b 185 -10 101 26 129 -10 b 308 172 257 -10 308 50 b 104 639 308 415 104 472 "},"t":{"ha":239,"x_min":0,"x_max":0,"o":"m 146 190 b 175 81 146 114 153 81 b 204 150 196 81 207 103 l 225 140 b 132 -10 225 42 182 -10 b 53 190 83 -10 53 36 l 53 549 b -6 703 53 658 36 703 l -14 703 l -3 743 b 101 888 63 743 101 808 l 146 928 l 146 743 l 201 743 l 213 703 b 146 675 213 703 146 703 l 146 190 "},"u":{"ha":433,"x_min":0,"x_max":0,"o":"m 360 194 b 408 40 360 89 375 40 l 419 40 l 408 0 l 267 0 l 267 85 b 176 -10 251 19 224 -10 b 78 153 115 -10 78 51 l 78 549 b 29 703 78 654 63 703 l 18 703 l 29 743 l 171 743 l 171 174 b 207 67 171 100 182 67 b 267 385 249 67 267 164 l 267 549 b 218 703 267 654 251 703 l 207 703 l 218 743 l 360 743 "},"ú":{"ha":433,"x_min":0,"x_max":0,"o":"m 360 194 b 408 40 360 89 375 40 l 419 40 l 408 0 l 267 0 l 267 85 b 176 -10 251 19 224 -10 b 78 153 115 -10 78 51 l 78 549 b 29 703 78 654 63 703 l 18 703 l 29 743 l 171 743 l 171 174 b 207 67 171 100 182 67 b 267 385 249 67 267 164 l 267 549 b 218 703 267 654 251 703 l 207 703 l 218 743 l 360 743 m 247 917 l 389 917 l 389 913 l 204 792 l 168 792 "},"û":{"ha":433,"x_min":0,"x_max":0,"o":"m 360 194 b 408 40 360 89 375 40 l 419 40 l 408 0 l 267 0 l 267 85 b 176 -10 251 19 224 -10 b 78 153 115 -10 78 51 l 78 549 b 29 703 78 654 63 703 l 18 703 l 29 743 l 171 743 l 171 174 b 207 67 171 100 182 67 b 267 385 249 67 267 164 l 267 549 b 218 703 267 654 251 703 l 207 703 l 218 743 l 360 743 m 214 958 l 221 958 l 336 792 l 311 792 l 217 847 l 124 792 l 99 792 "},"ü":{"ha":433,"x_min":0,"x_max":0,"o":"m 360 194 b 408 40 360 89 375 40 l 419 40 l 408 0 l 267 0 l 267 85 b 176 -10 251 19 224 -10 b 78 153 115 -10 78 51 l 78 549 b 29 703 78 654 63 703 l 18 703 l 29 743 l 171 743 l 171 174 b 207 67 171 100 182 67 b 267 385 249 67 267 164 l 267 549 b 218 703 267 654 251 703 l 207 703 l 218 743 l 360 743 m 94 850 b 143 908 94 885 114 908 b 192 850 174 908 192 885 b 143 794 192 817 174 794 b 94 850 114 794 94 817 m 242 850 b 290 908 242 885 261 908 b 339 850 321 908 339 885 b 290 794 339 817 321 794 b 242 850 261 794 242 817 "},"ù":{"ha":433,"x_min":0,"x_max":0,"o":"m 360 194 b 408 40 360 89 375 40 l 419 40 l 408 0 l 267 0 l 267 85 b 176 -10 251 19 224 -10 b 78 153 115 -10 78 51 l 78 549 b 29 703 78 654 63 703 l 18 703 l 29 743 l 171 743 l 171 174 b 207 67 171 100 182 67 b 267 385 249 67 267 164 l 267 549 b 218 703 267 654 251 703 l 207 703 l 218 743 l 360 743 m 44 917 l 186 917 l 265 792 l 229 792 l 44 913 "},"v":{"ha":344,"x_min":0,"x_max":0,"o":"m 214 0 l 157 0 l 64 576 b -12 703 50 664 25 703 l -21 703 l -8 743 l 182 743 l 194 703 l 188 703 b 158 610 150 703 149 674 l 213 253 l 260 610 b 231 703 268 674 257 703 l 224 703 l 236 743 l 353 743 l 365 703 l 358 703 b 292 576 321 703 304 664 "},"w":{"ha":475,"x_min":0,"x_max":0,"o":"m 344 0 l 300 0 l 244 446 l 190 0 l 144 0 l 60 576 b -11 703 47 664 26 703 l -17 703 l -7 743 l 333 743 l 342 703 l 336 703 b 315 610 300 703 310 674 l 347 267 l 392 610 b 365 703 400 674 390 703 l 360 703 l 368 743 l 482 743 l 492 703 l 485 703 b 425 576 449 703 438 664 m 188 263 l 225 597 b 171 703 214 669 200 703 l 167 703 b 150 610 139 703 143 674 "},"x":{"ha":326,"x_min":0,"x_max":0,"o":"m 181 128 b 150 40 196 67 189 40 l 144 40 l 153 0 l 331 0 l 340 40 l 333 40 b 268 161 299 40 290 72 l 204 418 l 249 576 b 324 703 272 660 290 703 l 331 703 l 322 743 l 213 743 l 204 703 l 208 703 b 222 610 239 703 239 669 l 186 485 l 156 610 b 179 703 140 672 146 703 l 186 703 l 178 743 l 3 743 l -6 703 l 0 703 b 68 576 38 703 49 653 l 119 371 l 64 167 b -14 40 40 81 19 40 l -21 40 l -12 0 l 104 0 l 113 40 l 106 40 b 90 133 72 40 74 72 l 142 322 l 175 317 l 204 418 l 186 485 l 140 322 l 142 322 l 168 421 l 135 426 l 119 371 l 181 128 "},"y":{"ha":363,"x_min":0,"x_max":0,"o":"m 219 -32 b 135 -149 211 -97 186 -149 b 40 39 83 -149 40 -76 b 154 63 40 201 154 182 b 104 -68 154 -19 104 -18 b 136 -111 104 -94 118 -111 b 186 13 163 -111 182 -72 b 124 256 193 157 143 136 l 71 576 b -6 703 57 661 33 703 l -14 703 l -1 743 l 189 743 l 201 703 l 194 703 b 165 610 157 703 157 674 l 219 214 l 267 610 b 238 703 275 675 261 703 l 231 703 l 243 743 l 364 743 l 376 703 l 369 703 b 303 576 333 703 315 668 l 219 -32 "},"z":{"ha":296,"x_min":0,"x_max":0,"o":"m 278 713 l 111 31 l 179 31 l 249 331 l 279 318 l 267 0 l 14 0 l 14 31 l 181 713 l 118 713 l 64 444 l 33 458 l 33 743 l 278 743 "},".":{"ha":192,"x_min":0,"x_max":0,"o":"m 96 -10 b 42 53 64 -10 42 15 b 96 117 42 92 64 117 b 150 53 129 117 150 92 b 96 -10 150 15 129 -10 "},",":{"ha":203,"x_min":0,"x_max":0,"o":"m 175 43 b 108 -149 175 -12 156 -68 l 82 -137 b 129 -1 110 -94 132 -40 b 99 -8 122 -6 111 -8 b 35 68 61 -8 35 24 b 103 146 35 114 63 146 b 175 43 147 146 175 107 "},":":{"ha":192,"x_min":0,"x_max":0,"o":"m 96 -10 b 42 53 64 -10 42 15 b 96 117 42 92 64 117 b 150 53 129 117 150 92 b 96 -10 150 15 129 -10 m 42 519 b 96 583 42 558 64 583 b 150 519 129 583 150 558 b 96 457 150 482 129 457 b 42 519 64 457 42 482 "},";":{"ha":224,"x_min":0,"x_max":0,"o":"m 103 457 b 49 519 71 457 49 482 b 103 583 49 558 71 583 b 157 519 136 583 157 558 b 103 457 157 482 136 457 m 42 68 b 110 146 42 114 69 146 b 182 43 154 146 182 107 b 115 -149 182 -12 163 -68 l 89 -137 b 136 -1 117 -94 139 -40 b 106 -8 129 -6 118 -8 b 42 68 68 -8 42 24 "},"…":{"ha":203,"x_min":0,"x_max":0,"o":"m 96 -10 b 42 53 64 -10 42 15 b 96 117 42 92 64 117 b 150 53 129 117 150 92 b 96 -10 150 15 129 -10 "},"!":{"ha":204,"x_min":0,"x_max":0,"o":"m 96 -10 b 42 53 64 -10 42 15 b 96 117 42 92 64 117 b 150 53 129 117 150 92 b 96 -10 150 15 129 -10 m 42 829 b 103 982 42 942 65 982 b 163 829 139 982 163 942 b 124 257 163 633 133 576 l 82 257 b 42 829 68 576 42 638 "},"¡":{"ha":204,"x_min":0,"x_max":0,"o":"m 96 982 b 150 919 129 982 150 957 b 96 856 150 881 129 856 b 42 919 64 856 42 881 b 96 982 42 957 64 982 m 42 143 b 82 715 42 335 68 396 l 124 715 b 163 143 133 396 163 339 b 103 -10 163 31 139 -10 b 42 143 65 -10 42 31 "},"?":{"ha":325,"x_min":0,"x_max":0,"o":"m 142 -10 b 88 53 110 -10 88 15 b 142 117 88 92 110 117 b 196 53 175 117 196 92 b 142 -10 196 15 175 -10 m 21 779 b 149 982 21 894 67 982 b 311 768 229 982 311 903 b 135 322 311 567 135 467 b 161 263 135 286 146 263 b 182 314 175 263 182 279 l 204 306 b 158 231 201 258 188 231 b 90 357 126 231 90 261 b 204 794 90 529 204 594 b 131 944 204 904 169 944 b 85 889 108 944 85 926 b 135 740 85 838 135 814 b 21 779 135 631 21 597 "},"¿":{"ha":325,"x_min":0,"x_max":0,"o":"m 183 982 b 238 919 215 982 238 957 b 183 856 238 881 215 856 b 129 919 150 856 129 881 b 183 982 129 957 150 982 m 14 204 b 190 650 14 406 190 506 b 164 710 190 686 179 710 b 143 658 150 710 143 693 l 121 667 b 167 742 124 714 138 742 b 235 615 199 742 235 711 b 121 178 235 443 121 378 b 194 28 121 68 156 28 b 240 83 217 28 240 46 b 190 232 240 135 190 158 b 304 193 190 342 304 375 b 176 -10 304 78 258 -10 b 14 204 96 -10 14 69 "},"·":{"ha":192,"x_min":0,"x_max":0,"o":"m 96 417 b 42 479 64 417 42 442 b 96 543 42 518 64 543 b 150 479 129 543 150 518 b 96 417 150 442 129 417 "},"•":{"ha":369,"x_min":0,"x_max":0,"o":"m 185 350 b 42 493 106 350 42 414 b 185 635 42 571 106 635 b 328 493 263 635 328 571 b 185 350 328 414 263 350 "},"-":{"ha":279,"x_min":0,"x_max":0,"o":"m 14 465 l 14 521 l 265 521 l 265 465 "},"–":{"ha":349,"x_min":0,"x_max":0,"o":"m 14 468 l 14 518 l 335 518 l 335 468 "},"—":{"ha":861,"x_min":0,"x_max":0,"o":"m 14 468 l 14 518 l 847 518 l 847 468 "},"_":{"ha":349,"x_min":0,"x_max":0,"o":"m 14 -60 l 14 -10 l 335 -10 l 335 -60 "},"(":{"ha":275,"x_min":0,"x_max":0,"o":"m 176 486 b 185 71 176 139 176 139 b 254 -42 193 -7 201 -29 l 254 -83 b 76 486 125 -81 76 156 b 254 1056 76 817 125 1053 l 254 1014 b 185 901 201 1001 193 979 b 176 486 176 833 176 833 "},")":{"ha":275,"x_min":0,"x_max":0,"o":"m 99 486 b 90 901 99 833 99 833 b 21 1014 82 979 74 1001 l 21 1056 b 199 486 150 1053 199 817 b 21 -83 199 156 150 -81 l 21 -42 b 90 71 74 -29 82 -7 b 99 486 99 139 99 139 "},"{":{"ha":261,"x_min":0,"x_max":0,"o":"m 96 486 b 169 99 221 428 169 222 b 240 -42 169 4 190 -40 l 240 -83 b 81 92 157 -82 81 -25 b 49 465 81 217 161 397 l 49 507 b 81 881 161 575 81 756 b 240 1056 81 997 157 1054 l 240 1014 b 169 874 190 1013 169 968 b 96 486 169 750 221 544 "},"}":{"ha":261,"x_min":0,"x_max":0,"o":"m 165 486 b 92 874 40 544 92 750 b 21 1014 92 968 71 1013 l 21 1056 b 181 881 104 1054 181 997 b 213 507 181 756 100 575 l 213 465 b 181 92 100 397 181 217 b 21 -83 181 -25 104 -82 l 21 -42 b 92 99 71 -40 92 4 b 165 486 92 222 40 428 "},"[":{"ha":271,"x_min":0,"x_max":0,"o":"m 83 1056 l 250 1056 l 250 1015 l 183 1015 l 183 -43 l 250 -43 l 250 -83 l 83 -83 "},"]":{"ha":271,"x_min":0,"x_max":0,"o":"m 21 -43 l 88 -43 l 88 1015 l 21 1015 l 21 1056 l 188 1056 l 188 -83 l 21 -83 "},"‚":{"ha":224,"x_min":0,"x_max":0,"o":"m 182 38 b 115 -136 182 -12 163 -64 l 89 -126 b 136 -3 117 -87 139 -37 b 106 -8 129 -7 118 -8 b 42 61 68 -8 42 19 b 110 132 42 103 69 132 b 182 38 154 132 182 96 "},"„":{"ha":383,"x_min":0,"x_max":0,"o":"m 182 38 b 115 -136 182 -12 163 -64 l 89 -126 b 136 -3 117 -87 139 -37 b 106 -8 129 -7 118 -8 b 42 61 68 -8 42 19 b 110 132 42 103 69 132 b 182 38 154 132 182 96 m 201 61 b 269 132 201 103 229 132 b 342 38 314 132 342 96 b 275 -136 342 -12 322 -64 l 249 -126 b 296 -3 276 -87 299 -37 b 265 -8 289 -7 278 -8 b 201 61 228 -8 201 19 "},"“":{"ha":383,"x_min":0,"x_max":0,"o":"m 201 817 b 268 990 201 867 221 918 l 294 981 b 247 857 267 942 244 892 b 278 863 254 861 265 863 b 342 793 315 863 342 835 b 274 722 342 751 314 722 b 201 817 229 722 201 758 m 42 817 b 108 990 42 867 61 918 l 135 981 b 88 857 107 942 85 892 b 118 863 94 861 106 863 b 182 793 156 863 182 835 b 114 722 182 751 154 722 b 42 817 69 722 42 758 "},"”":{"ha":383,"x_min":0,"x_max":0,"o":"m 182 888 b 115 714 182 838 163 786 l 89 724 b 136 847 117 763 139 813 b 106 842 129 843 118 842 b 42 911 68 842 42 869 b 110 982 42 953 69 982 b 182 888 154 982 182 946 m 201 911 b 269 982 201 953 229 982 b 342 888 314 982 342 946 b 275 714 342 838 322 786 l 249 724 b 296 847 276 763 299 813 b 265 842 289 843 278 842 b 201 911 228 842 201 869 "},"‘":{"ha":224,"x_min":0,"x_max":0,"o":"m 42 817 b 108 990 42 867 61 918 l 135 981 b 88 857 107 942 85 892 b 118 863 94 861 106 863 b 182 793 156 863 182 835 b 114 722 182 751 154 722 b 42 817 69 722 42 758 "},"’":{"ha":224,"x_min":0,"x_max":0,"o":"m 182 888 b 115 714 182 838 163 786 l 89 724 b 136 847 117 763 139 813 b 106 842 129 843 118 842 b 42 911 68 842 42 869 b 110 982 42 953 69 982 b 182 888 154 982 182 946 "},"«":{"ha":239,"x_min":0,"x_max":0,"o":"m 225 696 l 164 446 l 225 196 l 206 188 l 104 446 l 206 704 m 115 704 l 135 696 l 74 446 l 135 196 l 115 188 l 14 446 "},"»":{"ha":239,"x_min":0,"x_max":0,"o":"m 135 446 l 33 188 l 14 196 l 75 446 l 14 696 l 33 704 m 165 446 l 104 696 l 124 704 l 225 446 l 124 188 l 104 196 "},"‹":{"ha":149,"x_min":0,"x_max":0,"o":"m 135 696 l 74 446 l 135 196 l 115 188 l 14 446 l 115 704 "},"›":{"ha":149,"x_min":0,"x_max":0,"o":"m 135 446 l 33 188 l 14 196 l 75 446 l 14 696 l 33 704 "},"\"":{"ha":379,"x_min":0,"x_max":0,"o":"m 85 722 b 42 911 54 843 42 857 b 108 982 42 954 67 982 b 171 911 156 982 171 950 b 125 722 171 857 161 839 l 85 722 m 208 911 b 275 982 208 954 233 982 b 338 911 322 982 338 950 b 292 722 338 857 328 839 l 251 722 b 208 911 221 843 208 857 "},"'":{"ha":213,"x_min":0,"x_max":0,"o":"m 85 722 b 42 911 54 843 42 857 b 108 982 42 954 67 982 b 171 911 156 982 171 950 b 125 722 171 857 161 839 l 85 722 "},"&":{"ha":472,"x_min":0,"x_max":0,"o":"m 244 167 b 139 507 196 318 163 425 b 113 319 113 456 113 388 b 215 74 113 185 154 74 b 267 106 235 74 253 85 b 244 167 258 125 251 146 m 14 272 b 124 560 14 451 63 517 b 88 771 94 667 88 718 b 207 982 88 918 138 982 b 325 800 276 982 325 917 b 215 582 325 685 292 640 b 232 521 221 557 228 535 l 321 244 b 351 443 335 303 344 372 b 317 568 357 529 349 568 l 308 568 l 317 608 l 419 608 l 428 568 l 419 568 b 378 443 396 568 388 529 b 336 196 371 365 358 275 l 346 167 b 399 82 364 111 376 82 b 444 171 424 82 443 121 l 458 163 b 375 -10 460 58 426 -10 b 286 67 339 -10 310 21 b 176 -10 258 19 222 -10 b 14 272 85 -10 14 108 m 174 840 b 204 624 174 779 189 694 b 236 840 229 664 236 724 b 207 947 236 899 232 947 b 174 840 182 947 174 899 "},"̈":{"ha":0,"x_min":0,"x_max":0,"o":"m 63 794 b 14 850 33 794 14 817 b 63 908 14 885 33 908 b 111 850 93 908 111 885 b 63 794 111 817 93 794 m 161 850 b 210 908 161 885 181 908 b 258 850 240 908 258 885 b 210 794 258 817 240 794 b 161 850 181 794 161 817 "},"̀":{"ha":0,"x_min":0,"x_max":0,"o":"m 0 917 l 142 917 l 221 792 l 185 792 l 0 913 "},"́":{"ha":0,"x_min":0,"x_max":0,"o":"m 36 792 l 0 792 l 79 917 l 221 917 l 221 913 "},"̂":{"ha":0,"x_min":0,"x_max":0,"o":"m 136 958 l 251 792 l 226 792 l 132 847 l 39 792 l 14 792 l 129 958 "},"̌":{"ha":0,"x_min":0,"x_max":0,"o":"m 14 1358 l 39 1358 l 132 1303 l 226 1358 l 251 1358 l 136 1192 l 129 1192 "},"̧":{"ha":0,"x_min":0,"x_max":0,"o":"m 49 0 l 49 -111 l 14 -111 l 14 0 "}}}
